<?xml version="1.0" encoding="UTF-8" standalone="no"?>
<svg width="163px" height="34px" viewBox="0 0 163 34" version="1.1" xmlns="http://www.w3.org/2000/svg" xmlns:xlink="http://www.w3.org/1999/xlink">
    <!-- Generator: Sketch 3.7.1 (28215) - http://www.bohemiancoding.com/sketch -->
    <title>logotype-g2a</title>
    <desc>Created with Sketch.</desc>
    <defs></defs>
    <g stroke="none" stroke-width="1" fill="none" fill-rule="evenodd">
        <g fill="#FFFFFF">
            <g>
                <path d="M23.4432234,24.5421245 C20.8267923,26.0596546 17.6347462,26.7922554 13.8147567,26.7922554 C9.52380952,26.7922554 6.1747776,25.588697 3.71533229,23.2339089 C1.25588697,20.8791209 0,17.8963893 0,13.762428 C0,9.57613815 1.36054422,6.59340659 4.02930403,3.97697541 C6.69806384,1.36054422 10.3087389,0.0523286238 14.7566719,0.0523286238 C17.5824176,0.0523286238 20.0418629,0.41862899 22.1873365,1.20355835 L22.1873365,6.80272109 C20.1465201,5.59916274 17.6347462,5.02354788 14.6520147,5.02354788 C12.1925693,5.02354788 10.151753,5.65149137 8.47723705,7.37833595 C6.90737834,9.00052329 6.27943485,10.7796965 6.27943485,13.5007849 C6.27943485,16.2218734 6.95970696,18.0533752 8.3725798,19.5709053 C9.78545264,21.0884354 11.6692831,21.8210361 14.0240712,21.8210361 C15.436944,21.8210361 16.5881737,21.6117216 17.4254317,21.1930926 L17.4254317,16.7974882 L12.1402407,16.7974882 L12.1402407,12.0355835 L23.4432234,12.0355835 L23.4432234,24.5421245 L23.4432234,24.5421245 Z M63.2653061,5.33751962 L55.7299843,5.33751962 L55.7299843,26.3212977 L49.7121926,26.3212977 L49.7121926,5.33751962 L42.1768707,5.33751962 L42.1768707,0.41862899 L63.2653061,0.41862899 L63.2653061,5.33751962 Z M36.159079,26.7922554 C33.0193616,26.7922554 30.5075877,25.9026688 28.7284144,24.1234956 C26.8969126,22.3443223 26.007326,19.9372057 26.007326,16.9021455 C26.007326,13.762428 26.9492412,11.3029827 28.8330717,9.52380952 C30.7169021,7.74463632 33.2286761,6.85504971 36.4207221,6.85504971 C39.5604396,6.85504971 42.0198849,7.74463632 43.7990581,9.52380952 C45.5782313,11.3029827 46.4678179,13.6577708 46.4678179,16.5358451 C46.4678179,19.6755625 45.5259027,22.1873365 43.6944008,23.9665097 C41.862899,25.8503401 39.3511251,26.7922554 36.159079,26.7922554 L36.159079,26.7922554 Z M36.3160649,11.3553114 C34.9555207,11.3553114 33.8566196,11.826269 33.1240188,12.7681842 C32.3390895,13.7100994 31.8681319,15.0706436 31.8681319,16.7974882 C31.8681319,20.4604919 33.4903192,22.2396651 36.4207221,22.2396651 C39.1941392,22.2396651 40.7639979,20.3558346 40.7639979,16.6405024 C40.6593407,13.1344846 39.1418106,11.3553114 36.3160649,11.3553114 L36.3160649,11.3553114 Z M69.126112,26.7922554 C65.9863946,26.7922554 63.4746206,25.9026688 61.6954474,24.1234956 C59.8639456,22.3443223 58.974359,19.9372057 58.974359,16.9021455 C58.974359,13.762428 59.9162742,11.3029827 61.8001047,9.52380952 C63.6839351,7.74463632 66.1957091,6.85504971 69.3877551,6.85504971 C72.5274725,6.85504971 74.9869178,7.74463632 76.7660911,9.52380952 C78.5452643,11.3029827 79.4348509,13.6577708 79.4348509,16.5358451 C79.4348509,19.6755625 78.4929356,22.1873365 76.6614338,23.9665097 C74.8822606,25.8503401 72.318158,26.7922554 69.126112,26.7922554 L69.126112,26.7922554 Z M69.2830979,11.3553114 C67.9225536,11.3553114 66.8236525,11.826269 66.0910518,12.7681842 C65.3061224,13.7100994 64.8351648,15.0706436 64.8351648,16.7974882 C64.8351648,20.4604919 66.4573522,22.2396651 69.3877551,22.2396651 C72.2135008,22.2396651 73.7310309,20.3558346 73.7310309,16.6405024 C73.6263736,13.1344846 72.1088435,11.3553114 69.2830979,11.3553114 L69.2830979,11.3553114 Z"></path>
                <path d="M96.266,17.5 L86.984,17.5 L83.822,26 L81,26 L90.214,1.86 L93.24,1.86 L102.42,26 L99.53,26 L96.266,17.5 Z M95.484,15.12 L92.9,7.946 L91.71,4.206 C91.6419997,4.45533458 91.4720014,5.00499575 91.2,5.855 C90.9279986,6.70500425 90.6956676,7.40199728 90.503,7.946 C90.3103324,8.49000272 89.4206746,10.8813121 87.834,15.12 L95.484,15.12 Z M114.544,20.9 C114.544,22.5773417 113.988672,23.9033285 112.878,24.878 C111.767328,25.8526715 110.248676,26.34 108.322,26.34 C106.259323,26.34 104.446008,26.0793359 102.882,25.558 L103.426,23.212 C105.148675,23.8240031 106.791992,24.13 108.356,24.13 C109.466672,24.13 110.344997,23.8523361 110.991,23.297 C111.637003,22.7416639 111.96,22.0106712 111.96,21.104 C111.96,20.2426624 111.654003,19.5400027 111.042,18.996 C110.429997,18.4519973 109.432674,17.9193359 108.05,17.398 C106.372658,16.7633302 105.148671,16.009671 104.378,15.137 C103.607329,14.264329 103.222,13.1933397 103.222,11.924 C103.222,10.3599922 103.709328,9.14167103 104.684,8.269 C105.658672,7.39632897 107.063991,6.96 108.9,6.96 C110.282674,6.96 111.835325,7.17533118 113.558,7.606 L113.048,9.884 C112.435997,9.72533254 111.784337,9.56666746 111.093,9.408 C110.401663,9.24933254 109.659337,9.17 108.866,9.17 C107.868662,9.17 107.08667,9.3966644 106.52,9.85 C105.953331,10.3033356 105.67,10.9379959 105.67,11.754 C105.67,12.3660031 105.794665,12.8646647 106.044,13.25 C106.293335,13.6353353 106.71833,13.9979983 107.319,14.338 C107.91967,14.6780017 108.718662,15.0293315 109.716,15.392 C112.934683,16.525339 114.544,18.3613206 114.544,20.9 L114.544,20.9 Z M128.3,20.9 C128.3,22.5773417 127.744672,23.9033285 126.634,24.878 C125.523328,25.8526715 124.004676,26.34 122.078,26.34 C120.015323,26.34 118.202008,26.0793359 116.638,25.558 L117.182,23.212 C118.904675,23.8240031 120.547992,24.13 122.112,24.13 C123.222672,24.13 124.100997,23.8523361 124.747,23.297 C125.393003,22.7416639 125.716,22.0106712 125.716,21.104 C125.716,20.2426624 125.410003,19.5400027 124.798,18.996 C124.185997,18.4519973 123.188674,17.9193359 121.806,17.398 C120.128658,16.7633302 118.904671,16.009671 118.134,15.137 C117.363329,14.264329 116.978,13.1933397 116.978,11.924 C116.978,10.3599922 117.465328,9.14167103 118.44,8.269 C119.414672,7.39632897 120.819991,6.96 122.656,6.96 C124.038674,6.96 125.591325,7.17533118 127.314,7.606 L126.804,9.884 C126.191997,9.72533254 125.540337,9.56666746 124.849,9.408 C124.157663,9.24933254 123.415337,9.17 122.622,9.17 C121.624662,9.17 120.84267,9.3966644 120.276,9.85 C119.709331,10.3033356 119.426,10.9379959 119.426,11.754 C119.426,12.3660031 119.550665,12.8646647 119.8,13.25 C120.049335,13.6353353 120.47433,13.9979983 121.075,14.338 C121.67567,14.6780017 122.474662,15.0293315 123.472,15.392 C126.690683,16.525339 128.3,18.3613206 128.3,20.9 L128.3,20.9 Z M131.822,26 L131.822,7.3 L134.44,7.3 L134.44,26 L131.822,26 Z M131.482,1.86 C131.482,1.38399762 131.646332,0.98733492 131.975,0.67 C132.303668,0.35266508 132.694664,0.194 133.148,0.194 C133.624002,0.194 134.020665,0.35833169 134.338,0.687 C134.655335,1.01566831 134.814,1.4066644 134.814,1.86 C134.814,2.3133356 134.655335,2.70433169 134.338,3.033 C134.020665,3.36166831 133.624002,3.526 133.148,3.526 C132.671998,3.526 132.275335,3.36733492 131.958,3.05 C131.640665,2.73266508 131.482,2.33600238 131.482,1.86 L131.482,1.86 Z M149.454,20.9 C149.454,22.5773417 148.898672,23.9033285 147.788,24.878 C146.677328,25.8526715 145.158676,26.34 143.232,26.34 C141.169323,26.34 139.356008,26.0793359 137.792,25.558 L138.336,23.212 C140.058675,23.8240031 141.701992,24.13 143.266,24.13 C144.376672,24.13 145.254997,23.8523361 145.901,23.297 C146.547003,22.7416639 146.87,22.0106712 146.87,21.104 C146.87,20.2426624 146.564003,19.5400027 145.952,18.996 C145.339997,18.4519973 144.342674,17.9193359 142.96,17.398 C141.282658,16.7633302 140.058671,16.009671 139.288,15.137 C138.517329,14.264329 138.132,13.1933397 138.132,11.924 C138.132,10.3599922 138.619328,9.14167103 139.594,8.269 C140.568672,7.39632897 141.973991,6.96 143.81,6.96 C145.192674,6.96 146.745325,7.17533118 148.468,7.606 L147.958,9.884 C147.345997,9.72533254 146.694337,9.56666746 146.003,9.408 C145.311663,9.24933254 144.569337,9.17 143.776,9.17 C142.778662,9.17 141.996669,9.3966644 141.43,9.85 C140.86333,10.3033356 140.58,10.9379959 140.58,11.754 C140.58,12.3660031 140.704665,12.8646647 140.954,13.25 C141.203335,13.6353353 141.62833,13.9979983 142.229,14.338 C142.82967,14.6780017 143.628662,15.0293315 144.626,15.392 C147.844683,16.525339 149.454,18.3613206 149.454,20.9 L149.454,20.9 Z M156.342,9.51 L156.342,21.512 C156.342,22.441338 156.523332,23.0986647 156.886,23.484 C157.248668,23.8693353 157.758663,24.062 158.416,24.062 C159.11867,24.062 160.13866,23.9146681 161.476,23.62 L161.85,25.728 C160.648661,26.136002 159.288674,26.34 157.77,26.34 C155.049986,26.34 153.69,24.8780146 153.69,21.954 L153.69,9.51 L150.8,9.51 L150.8,7.3 L153.758,7.3 L154.064,2.914 L156.342,2.914 L156.342,7.3 L161.34,7.3 L161.34,9.51 L156.342,9.51 Z"></path>
            </g>
        </g>
    </g>
</svg>