<?xml version="1.0" encoding="UTF-8" standalone="no"?>
<svg width="205px" height="34px" viewBox="0 0 205 34" version="1.1" xmlns="http://www.w3.org/2000/svg" xmlns:xlink="http://www.w3.org/1999/xlink">
    <!-- Generator: Sketch 3.7.1 (28215) - http://www.bohemiancoding.com/sketch -->
    <title>logotype-g2w</title>
    <desc>Created with Sketch.</desc>
    <defs>
        <path d="M23.4432234,25.5421245 C20.8267923,27.0596546 17.6347462,27.7922554 13.8147567,27.7922554 C9.52380952,27.7922554 6.1747776,26.588697 3.71533229,24.2339089 C1.25588697,21.8791209 0,18.8963893 0,14.762428 C0,10.5761381 1.36054422,7.59340659 4.02930403,4.97697541 C6.69806384,2.36054422 10.3087389,1.05232862 14.7566719,1.05232862 C17.5824176,1.05232862 20.0418629,1.41862899 22.1873365,2.20355835 L22.1873365,7.80272109 C20.1465201,6.59916274 17.6347462,6.02354788 14.6520147,6.02354788 C12.1925693,6.02354788 10.151753,6.65149137 8.47723705,8.37833595 C6.90737834,10.0005233 6.27943485,11.7796965 6.27943485,14.5007849 C6.27943485,17.2218734 6.95970696,19.0533752 8.3725798,20.5709053 C9.78545264,22.0884354 11.6692831,22.8210361 14.0240712,22.8210361 C15.436944,22.8210361 16.5881737,22.6117216 17.4254317,22.1930926 L17.4254317,17.7974882 L12.1402407,17.7974882 L12.1402407,13.0355835 L23.4432234,13.0355835 L23.4432234,25.5421245 L23.4432234,25.5421245 Z M63.2653061,6.33751962 L55.7299843,6.33751962 L55.7299843,27.3212977 L49.7121926,27.3212977 L49.7121926,6.33751962 L42.1768707,6.33751962 L42.1768707,1.41862899 L63.2653061,1.41862899 L63.2653061,6.33751962 Z M36.159079,27.7922554 C33.0193616,27.7922554 30.5075877,26.9026688 28.7284144,25.1234956 C26.8969126,23.3443223 26.007326,20.9372057 26.007326,17.9021455 C26.007326,14.762428 26.9492412,12.3029827 28.8330717,10.5238095 C30.7169021,8.74463632 33.2286761,7.85504971 36.4207221,7.85504971 C39.5604396,7.85504971 42.0198849,8.74463632 43.7990581,10.5238095 C45.5782313,12.3029827 46.4678179,14.6577708 46.4678179,17.5358451 C46.4678179,20.6755625 45.5259027,23.1873365 43.6944008,24.9665097 C41.862899,26.8503401 39.3511251,27.7922554 36.159079,27.7922554 L36.159079,27.7922554 Z M36.3160649,12.3553114 C34.9555207,12.3553114 33.8566196,12.826269 33.1240188,13.7681842 C32.3390895,14.7100994 31.8681319,16.0706436 31.8681319,17.7974882 C31.8681319,21.4604919 33.4903192,23.2396651 36.4207221,23.2396651 C39.1941392,23.2396651 40.7639979,21.3558346 40.7639979,17.6405024 C40.6593407,14.1344846 39.1418106,12.3553114 36.3160649,12.3553114 L36.3160649,12.3553114 Z M69.126112,27.7922554 C65.9863946,27.7922554 63.4746206,26.9026688 61.6954474,25.1234956 C59.8639456,23.3443223 58.974359,20.9372057 58.974359,17.9021455 C58.974359,14.762428 59.9162742,12.3029827 61.8001047,10.5238095 C63.6839351,8.74463632 66.1957091,7.85504971 69.3877551,7.85504971 C72.5274725,7.85504971 74.9869178,8.74463632 76.7660911,10.5238095 C78.5452643,12.3029827 79.4348509,14.6577708 79.4348509,17.5358451 C79.4348509,20.6755625 78.4929356,23.1873365 76.6614338,24.9665097 C74.8822606,26.8503401 72.318158,27.7922554 69.126112,27.7922554 L69.126112,27.7922554 Z M69.2830979,12.3553114 C67.9225536,12.3553114 66.8236525,12.826269 66.0910518,13.7681842 C65.3061224,14.7100994 64.8351648,16.0706436 64.8351648,17.7974882 C64.8351648,21.4604919 66.4573522,23.2396651 69.3877551,23.2396651 C72.2135008,23.2396651 73.7310309,21.3558346 73.7310309,17.6405024 C73.6263736,14.1344846 72.1088435,12.3553114 69.2830979,12.3553114 L69.2830979,12.3553114 Z" id="path-1"></path>
        <filter x="-50%" y="-50%" width="200%" height="200%" filterUnits="objectBoundingBox" id="filter-2">
            <feOffset dx="0" dy="1" in="SourceAlpha" result="shadowOffsetOuter1"></feOffset>
            <feColorMatrix values="0 0 0 0 0.321568627   0 0 0 0 0.556862745   0 0 0 0 0.792156863  0 0 0 0.5 0" type="matrix" in="shadowOffsetOuter1"></feColorMatrix>
        </filter>
        <path d="M95.354,5.886 C95.1046654,7.20067324 94.8893342,8.17533016 94.708,8.81 L89.676,27 L86.378,27 L80.224,2.86 L83.114,2.86 L87.5,20.71 L87.704,21.866 L88.112,24.314 C88.112,24.2686664 88.1346664,24.1213346 88.18,23.872 C88.2253336,23.6226654 88.2819997,23.3223351 88.35,22.971 C88.4180003,22.6196649 88.4973329,22.240002 88.588,21.832 C88.6786671,21.423998 88.7693329,21.0386685 88.86,20.676 L93.756,2.86 L97.02,2.86 L101.95,20.676 C102.154001,21.4466705 102.369332,22.50066 102.596,23.838 L102.664,24.28 L102.732,23.906 C102.913334,22.6366603 103.105999,21.5713376 103.31,20.71 L107.73,2.86 L110.62,2.86 L104.466,27 L101.066,27 L96,8.844 C95.7733322,7.95999558 95.558001,6.97400544 95.354,5.886 L95.354,5.886 Z M126.008,17.956 L113.972,17.956 C113.972,20.2906783 114.481995,22.0756605 115.502,23.311 C116.522005,24.5463395 118.01799,25.164 119.99,25.164 C120.806004,25.164 121.706995,25.0506678 122.693,24.824 C123.679005,24.5973322 124.659328,24.280002 125.634,23.872 L126.178,26.082 C125.316662,26.4446685 124.285339,26.7449988 123.084,26.983 C121.882661,27.2210012 120.749339,27.34 119.684,27.34 C116.895986,27.34 114.788007,26.5296748 113.36,24.909 C111.931993,23.2883252 111.218,20.9593485 111.218,17.922 C111.218,14.7486508 111.875327,12.2950087 113.19,10.561 C114.504673,8.82699133 116.385988,7.96 118.834,7.96 C121.168678,7.96 122.947994,8.67965947 124.172,10.119 C125.396006,11.5583405 126.008,13.6833193 126.008,16.494 L126.008,17.956 Z M123.356,15.916 C123.356,14.0119905 122.98767,12.5670049 122.251,11.581 C121.51433,10.5949951 120.409341,10.102 118.936,10.102 C117.507993,10.102 116.363338,10.5893285 115.502,11.564 C114.640662,12.5386715 114.130667,13.9893237 113.972,15.916 L123.356,15.916 Z M145.238,17.446 C145.238,20.5060153 144.490007,22.9199912 142.994,24.688 C141.497993,26.4560088 139.44668,27.34 136.84,27.34 C135.525327,27.34 134.335339,27.2550009 133.27,27.085 C132.204661,26.9149991 131.03734,26.626002 129.768,26.218 L129.768,0.888 L132.386,0.888 L132.386,9.762 C134.108675,8.56066066 135.933324,7.96 137.86,7.96 C142.778691,7.96 145.238,11.1219684 145.238,17.446 L145.238,17.446 Z M142.484,17.446 C142.484,15.0206545 142.070337,13.2073393 141.243,12.006 C140.415663,10.8046607 139.106676,10.204 137.316,10.204 C136.522663,10.204 135.672671,10.3683317 134.766,10.697 C133.859329,11.0256683 133.066003,11.4619973 132.386,12.006 L132.386,24.416 C133.768674,24.8693356 135.275992,25.096 136.908,25.096 C137.996005,25.096 138.964996,24.7843364 139.815,24.161 C140.665004,23.5376635 141.322331,22.6536724 141.787,21.509 C142.251669,20.3643276 142.484,19.0100078 142.484,17.446 L142.484,17.446 Z M149.032,27 L149.032,8.3 L151.65,8.3 L151.65,27 L149.032,27 Z M148.692,2.86 C148.692,2.38399762 148.856332,1.98733492 149.185,1.67 C149.513668,1.35266508 149.904664,1.194 150.358,1.194 C150.834002,1.194 151.230665,1.35833169 151.548,1.687 C151.865335,2.01566831 152.024,2.4066644 152.024,2.86 C152.024,3.3133356 151.865335,3.70433169 151.548,4.033 C151.230665,4.36166831 150.834002,4.526 150.358,4.526 C149.881998,4.526 149.485335,4.36733492 149.168,4.05 C148.850665,3.73266508 148.692,3.33600238 148.692,2.86 L148.692,2.86 Z M170.948,27 L168.33,27 L168.33,14.284 C168.33,12.9693268 167.99567,11.9606702 167.327,11.258 C166.65833,10.5553298 165.746006,10.204 164.59,10.204 C163.524661,10.204 162.555671,10.3513319 161.683,10.646 C160.810329,10.9406681 159.932004,11.3939969 159.048,12.006 L159.048,27 L156.43,27 L156.43,8.3 L158.572,8.3 L158.946,9.864 C160.011339,9.16132982 161.031328,8.66833475 162.006,8.385 C162.980672,8.10166525 164.068661,7.96 165.27,7.96 C166.380672,7.96 167.366662,8.19799762 168.228,8.674 C169.089338,9.15000238 169.757998,9.82999558 170.234,10.714 C170.710002,11.5980044 170.948,12.6746603 170.948,13.944 L170.948,27 Z M186.166,27 L185.758,25.402 C184.828662,26.0140031 183.871005,26.4899983 182.885,26.83 C181.898995,27.1700017 180.816673,27.34 179.638,27.34 C177.915325,27.34 176.549672,26.8810046 175.541,25.963 C174.532328,25.0449954 174.028,23.7700082 174.028,22.138 C174.028,20.0073227 174.934658,18.4603382 176.748,17.497 C178.561342,16.5336619 181.50798,15.9840007 185.588,15.848 L185.588,14.25 C185.588,12.9579935 185.208337,11.949337 184.449,11.224 C183.689663,10.498663 182.67534,10.136 181.406,10.136 C179.819325,10.136 178.176008,10.4873298 176.476,11.19 L175.762,9.082 C177.598009,8.35666304 179.547323,7.994 181.61,7.994 C183.695344,7.994 185.315994,8.53232795 186.472,9.609 C187.628006,10.685672 188.206,12.1419908 188.206,13.978 L188.206,27 L186.166,27 Z M185.588,17.854 C182.641319,17.854 180.425674,18.1996632 178.941,18.891 C177.456326,19.5823368 176.714,20.6759925 176.714,22.172 C176.714,23.101338 177.019997,23.8436639 177.632,24.399 C178.244003,24.9543361 179.059995,25.232 180.08,25.232 C181.916009,25.232 183.751991,24.6766722 185.588,23.566 L185.588,17.854 Z M192.85,8.3 L194.958,8.3 L195.264,10.578 C195.89867,9.69399558 196.58433,9.03666882 197.321,8.606 C198.05767,8.17533118 198.935995,7.96 199.956,7.96 C200.65867,7.96 201.281997,8.02799932 201.826,8.164 L201.452,10.68 C200.998664,10.5213325 200.364004,10.442 199.548,10.442 C198.731996,10.442 197.98967,10.6516646 197.321,11.071 C196.65233,11.4903354 196.034669,12.1193291 195.468,12.958 L195.468,27 L192.85,27 L192.85,8.3 Z" id="path-3"></path>
        <filter x="-50%" y="-50%" width="200%" height="200%" filterUnits="objectBoundingBox" id="filter-4">
            <feOffset dx="0" dy="1" in="SourceAlpha" result="shadowOffsetOuter1"></feOffset>
            <feColorMatrix values="0 0 0 0 0.321568627   0 0 0 0 0.556862745   0 0 0 0 0.792156863  0 0 0 0.5 0" type="matrix" in="shadowOffsetOuter1"></feColorMatrix>
        </filter>
    </defs>
    <g stroke="none" stroke-width="1" fill="none" fill-rule="evenodd">
        <g>
            <g transform="translate(0.000000, -1.000000)">
                <g>
                    <use fill="black" fill-opacity="1" filter="url(#filter-2)" xlink:href="#path-1"></use>
                    <use fill="#214265" fill-rule="evenodd" xlink:href="#path-1"></use>
                </g>
                <g>
                    <use fill="black" fill-opacity="1" filter="url(#filter-4)" xlink:href="#path-3"></use>
                    <use fill="#214265" fill-rule="evenodd" xlink:href="#path-3"></use>
                </g>
            </g>
        </g>
    </g>
</svg>