<?xml version="1.0" encoding="UTF-8" standalone="no"?>
<svg width="193px" height="35px" viewBox="0 0 193 35" version="1.1" xmlns="http://www.w3.org/2000/svg" xmlns:xlink="http://www.w3.org/1999/xlink">
    <!-- Generator: Sketch 3.7.1 (28215) - http://www.bohemiancoding.com/sketch -->
    <title>logotype-g2t</title>
    <desc>Created with Sketch.</desc>
    <defs></defs>
    <g stroke="none" stroke-width="1" fill="none" fill-rule="evenodd">
        <g fill="#FFFFFF">
            <path d="M23.4432234,24.5421245 C20.8267923,26.0596546 17.6347462,26.7922554 13.8147567,26.7922554 C9.52380952,26.7922554 6.1747776,25.588697 3.71533229,23.2339089 C1.25588697,20.8791209 0,17.8963893 0,13.762428 C0,9.57613815 1.36054422,6.59340659 4.02930403,3.97697541 C6.69806384,1.36054422 10.3087389,0.0523286238 14.7566719,0.0523286238 C17.5824176,0.0523286238 20.0418629,0.41862899 22.1873365,1.20355835 L22.1873365,6.80272109 C20.1465201,5.59916274 17.6347462,5.02354788 14.6520147,5.02354788 C12.1925693,5.02354788 10.151753,5.65149137 8.47723705,7.37833595 C6.90737834,9.00052329 6.27943485,10.7796965 6.27943485,13.5007849 C6.27943485,16.2218734 6.95970696,18.0533752 8.3725798,19.5709053 C9.78545264,21.0884354 11.6692831,21.8210361 14.0240712,21.8210361 C15.436944,21.8210361 16.5881737,21.6117216 17.4254317,21.1930926 L17.4254317,16.7974882 L12.1402407,16.7974882 L12.1402407,12.0355835 L23.4432234,12.0355835 L23.4432234,24.5421245 L23.4432234,24.5421245 Z M63.2653061,5.33751962 L55.7299843,5.33751962 L55.7299843,26.3212977 L49.7121926,26.3212977 L49.7121926,5.33751962 L42.1768707,5.33751962 L42.1768707,0.41862899 L63.2653061,0.41862899 L63.2653061,5.33751962 Z M36.159079,26.7922554 C33.0193616,26.7922554 30.5075877,25.9026688 28.7284144,24.1234956 C26.8969126,22.3443223 26.007326,19.9372057 26.007326,16.9021455 C26.007326,13.762428 26.9492412,11.3029827 28.8330717,9.52380952 C30.7169021,7.74463632 33.2286761,6.85504971 36.4207221,6.85504971 C39.5604396,6.85504971 42.0198849,7.74463632 43.7990581,9.52380952 C45.5782313,11.3029827 46.4678179,13.6577708 46.4678179,16.5358451 C46.4678179,19.6755625 45.5259027,22.1873365 43.6944008,23.9665097 C41.862899,25.8503401 39.3511251,26.7922554 36.159079,26.7922554 L36.159079,26.7922554 Z M36.3160649,11.3553114 C34.9555207,11.3553114 33.8566196,11.826269 33.1240188,12.7681842 C32.3390895,13.7100994 31.8681319,15.0706436 31.8681319,16.7974882 C31.8681319,20.4604919 33.4903192,22.2396651 36.4207221,22.2396651 C39.1941392,22.2396651 40.7639979,20.3558346 40.7639979,16.6405024 C40.6593407,13.1344846 39.1418106,11.3553114 36.3160649,11.3553114 L36.3160649,11.3553114 Z M69.126112,26.7922554 C65.9863946,26.7922554 63.4746206,25.9026688 61.6954474,24.1234956 C59.8639456,22.3443223 58.974359,19.9372057 58.974359,16.9021455 C58.974359,13.762428 59.9162742,11.3029827 61.8001047,9.52380952 C63.6839351,7.74463632 66.1957091,6.85504971 69.3877551,6.85504971 C72.5274725,6.85504971 74.9869178,7.74463632 76.7660911,9.52380952 C78.5452643,11.3029827 79.4348509,13.6577708 79.4348509,16.5358451 C79.4348509,19.6755625 78.4929356,22.1873365 76.6614338,23.9665097 C74.8822606,25.8503401 72.318158,26.7922554 69.126112,26.7922554 L69.126112,26.7922554 Z M69.2830979,11.3553114 C67.9225536,11.3553114 66.8236525,11.826269 66.0910518,12.7681842 C65.3061224,13.7100994 64.8351648,15.0706436 64.8351648,16.7974882 C64.8351648,20.4604919 66.4573522,22.2396651 69.3877551,22.2396651 C72.2135008,22.2396651 73.7310309,20.3558346 73.7310309,16.6405024 C73.6263736,13.1344846 72.1088435,11.3553114 69.2830979,11.3553114 L69.2830979,11.3553114 Z"></path>
            <path d="M89.302,4.274 L89.302,26 L86.616,26 L86.616,4.274 L79.442,4.274 L79.442,1.86 L96.442,1.86 L96.442,4.274 L89.302,4.274 Z M96.156,7.3 L98.264,7.3 L98.57,9.578 C99.2046698,8.69399558 99.8903296,8.03666882 100.627,7.606 C101.36367,7.17533118 102.241995,6.96 103.262,6.96 C103.96467,6.96 104.587997,7.02799932 105.132,7.164 L104.758,9.68 C104.304664,9.52133254 103.670004,9.442 102.854,9.442 C102.037996,9.442 101.29567,9.65166457 100.627,10.071 C99.95833,10.4903354 99.3406695,11.1193291 98.774,11.958 L98.774,26 L96.156,26 L96.156,7.3 Z M117.222,26 L116.814,24.402 C115.884662,25.0140031 114.927005,25.4899983 113.941,25.83 C112.954995,26.1700017 111.872673,26.34 110.694,26.34 C108.971325,26.34 107.605672,25.8810046 106.597,24.963 C105.588328,24.0449954 105.084,22.7700082 105.084,21.138 C105.084,19.0073227 105.990658,17.4603382 107.804,16.497 C109.617342,15.5336619 112.56398,14.9840007 116.644,14.848 L116.644,13.25 C116.644,11.9579935 116.264337,10.949337 115.505,10.224 C114.745663,9.49866304 113.73134,9.136 112.462,9.136 C110.875325,9.136 109.232009,9.48732982 107.532,10.19 L106.818,8.082 C108.654009,7.35666304 110.603323,6.994 112.666,6.994 C114.751344,6.994 116.371994,7.53232795 117.528,8.609 C118.684006,9.68567205 119.262,11.1419908 119.262,12.978 L119.262,26 L117.222,26 Z M116.644,16.854 C113.697319,16.854 111.481674,17.1996632 109.997,17.891 C108.512326,18.5823368 107.77,19.6759925 107.77,21.172 C107.77,22.101338 108.075997,22.8436639 108.688,23.399 C109.300003,23.9543361 110.115995,24.232 111.136,24.232 C112.972009,24.232 114.807991,23.6766722 116.644,22.566 L116.644,16.854 Z M123.906,26 L123.906,7.3 L126.524,7.3 L126.524,26 L123.906,26 Z M123.566,1.86 C123.566,1.38399762 123.730332,0.98733492 124.059,0.67 C124.387668,0.35266508 124.778664,0.194 125.232,0.194 C125.708002,0.194 126.104665,0.35833169 126.422,0.687 C126.739335,1.01566831 126.898,1.4066644 126.898,1.86 C126.898,2.3133356 126.739335,2.70433169 126.422,3.033 C126.104665,3.36166831 125.708002,3.526 125.232,3.526 C124.755998,3.526 124.359335,3.36733492 124.042,3.05 C123.724665,2.73266508 123.566,2.33600238 123.566,1.86 L123.566,1.86 Z M145.822,26 L143.204,26 L143.204,13.284 C143.204,11.9693268 142.86967,10.9606702 142.201,10.258 C141.53233,9.55532982 140.620006,9.204 139.464,9.204 C138.398661,9.204 137.429671,9.35133186 136.557,9.646 C135.684329,9.94066814 134.806004,10.3939969 133.922,11.006 L133.922,26 L131.304,26 L131.304,7.3 L133.446,7.3 L133.82,8.864 C134.885339,8.16132982 135.905328,7.66833475 136.88,7.385 C137.854672,7.10166525 138.942661,6.96 140.144,6.96 C141.254672,6.96 142.240662,7.19799762 143.102,7.674 C143.963338,8.15000238 144.631998,8.82999558 145.108,9.714 C145.584002,10.5980044 145.822,11.6746603 145.822,12.944 L145.822,26 Z M150.432,26 L150.432,7.3 L153.05,7.3 L153.05,26 L150.432,26 Z M150.092,1.86 C150.092,1.38399762 150.256332,0.98733492 150.585,0.67 C150.913668,0.35266508 151.304664,0.194 151.758,0.194 C152.234002,0.194 152.630665,0.35833169 152.948,0.687 C153.265335,1.01566831 153.424,1.4066644 153.424,1.86 C153.424,2.3133356 153.265335,2.70433169 152.948,3.033 C152.630665,3.36166831 152.234002,3.526 151.758,3.526 C151.281998,3.526 150.885335,3.36733492 150.568,3.05 C150.250665,2.73266508 150.092,2.33600238 150.092,1.86 L150.092,1.86 Z M172.348,26 L169.73,26 L169.73,13.284 C169.73,11.9693268 169.39567,10.9606702 168.727,10.258 C168.05833,9.55532982 167.146006,9.204 165.99,9.204 C164.924661,9.204 163.955671,9.35133186 163.083,9.646 C162.210329,9.94066814 161.332004,10.3939969 160.448,11.006 L160.448,26 L157.83,26 L157.83,7.3 L159.972,7.3 L160.346,8.864 C161.411339,8.16132982 162.431328,7.66833475 163.406,7.385 C164.380672,7.10166525 165.468661,6.96 166.67,6.96 C167.780672,6.96 168.766662,7.19799762 169.628,7.674 C170.489338,8.15000238 171.157998,8.82999558 171.634,9.714 C172.110002,10.5980044 172.348,11.6746603 172.348,12.944 L172.348,26 Z M178.726,16.854 C178.726,19.324679 179.150996,21.1493274 180.001,22.328 C180.851004,23.5066726 182.148658,24.096 183.894,24.096 C184.868672,24.096 185.803662,23.9033353 186.699,23.518 C187.594338,23.1326647 188.302664,22.7246688 188.824,22.294 L188.824,9.85 C187.41866,9.41933118 185.911341,9.204 184.302,9.204 C182.624658,9.204 181.276005,9.91232625 180.256,11.329 C179.235995,12.7456737 178.726,14.587322 178.726,16.854 L178.726,16.854 Z M188.824,24.47 C187.146658,25.7166729 185.333343,26.34 183.384,26.34 C180.845321,26.34 178.975339,25.5580078 177.774,23.994 C176.572661,22.4299922 175.972,20.0613492 175.972,16.888 C175.972,13.8506515 176.719993,11.4366756 178.216,9.646 C179.712007,7.85532438 181.76332,6.96 184.37,6.96 C186.41001,6.96 188.76732,7.32266304 191.442,8.048 L191.442,26.952 C191.442,29.1280109 190.722341,30.8279939 189.283,32.052 C187.843659,33.2760061 185.82068,33.888 183.214,33.888 C181.060656,33.888 179.043343,33.5480034 177.162,32.868 L177.876,30.692 C179.734676,31.3493366 181.513992,31.678 183.214,31.678 C185.18601,31.678 186.613996,31.213338 187.498,30.284 C188.382004,29.354662 188.824,28.1646739 188.824,26.714 L188.824,24.47 Z"></path>
        </g>
    </g>
</svg>